<?xml version="1.0" encoding="utf-8"?>
<!-- Generator: Adobe Illustrator 23.0.4, SVG Export Plug-In . SVG Version: 6.00 Build 0)  -->
<svg version="1.1" id="Layer_1" xmlns="http://www.w3.org/2000/svg" xmlns:xlink="http://www.w3.org/1999/xlink" x="0px" y="0px"
	 viewBox="0 0 705.7 370.8" style="enable-background:new 0 0 705.7 370.8;" xml:space="preserve">
<style type="text/css">
	.st0{fill:#3B2267;}
	.st1{fill:#595959;}
</style>
<title>vertexlogoR_colorPMS</title>
<polygon class="st0" points="457.5,178.8 349.9,0 242.2,178.8 "/>
<polygon class="st0" points="147.5,336.1 126.6,370.8 573.2,370.8 552.2,336.1 "/>
<path class="st1" d="M124.9,205.2c-9.1,0-19,29.5-33,60.7c-9.3,20.5-16.8,40.2-19.8,46.2c-3.5-0.4-7.1-0.6-10.7-0.7
	c-4.2,0-8.6,0.4-13,0.7c-2.7-7.4-10.5-29.3-19.5-51.4c-10.7-26.3-20.2-55.1-29-55.5v-1.6c8.9,0.4,17.7,0.7,26.5,0.7
	c6.3,0,12.6-0.4,18.8-0.7v1.6c-2.3,0.7-4.8,0.9-4.8,6.3c0,13.9,26.8,74.9,29.7,83.2c3.8-9.6,26.2-60,26.2-81.4c0-6-2.5-7.4-6.2-8.1
	v-1.6c6,0.4,12.1,0.7,18.2,0.7c5.4,0,11-0.4,16.5-0.7L124.9,205.2z"/>
<path class="st1" d="M224.4,285.4c-4.2,9.7-7.4,17-9.1,28.2c-1.6-1.2-7-1.8-13.3-1.9c-6.3-0.4-13.5-0.4-19.3-0.4H162
	c-14,0-25.3,0.5-27,0.7v-1.6c8.6,0,8.6-14.9,8.6-52.6c0-40.5-0.2-51.8-8.6-52.6v-1.6c3.7,0,8.1,0.2,13.3,0.4
	c5.4,0.2,11.8,0.4,19.3,0.4h15.1c16.5,0,28.8-0.5,36.1-2.3c-2.1,7.7-3.1,15.7-3,23.7v3.5h-3.7c0-16.1-13.3-18.6-31.4-18.6
	c-3.3,0-6.6,0.3-9.8,1.1c-1.4,11.2-1.4,34.6-1.4,38.9c3.3,0.3,6.7,0.5,10,0.5c19.1,0,21.4-4.2,22.1-12.8h3.7
	c-0.8,6.7-1.2,13.4-1.2,20.2c0,11.6,0,4.4,0.2,13.5h-3.9c0-9.3-3.7-14.4-20.9-14.4c-4.2,0-7.7,0-10,0.2c0,5.6,0,33.3,0.5,44.9
	c3.9,0.2,7.7,0.7,11.8,0.7c27.9,0,33.7-8.8,39.5-19.7L224.4,285.4z"/>
<path class="st1" d="M239.4,310.5c8.6-0.2,8.6-15.4,8.6-52.6s0-52.3-8.6-52.6v-1.6c3.3,0.2,7.2,0.4,10.9,0.5c3.7,0,7.4,0.2,10.2,0.2
	c5.3,0,11.4-0.5,18.4-1.2c6.8-0.5,14.6-1,22.5-1c4.9,0,33.5,0,33.5,26c0,20.7-20.9,27.7-30.7,29.5c3.7,4.2,14,20,25.4,34.4
	c10,12.6,14.6,18.3,19.5,18.6v1.6c-1.8-0.2-4-0.4-6.1-0.5c-2.3-0.2-4.5-0.2-6.8-0.2c-7.3-0.1-14.7,0.4-22,1.4
	c-2.1-3.3-8.8-14.6-16.8-26.7c-7.5-11.2-13.5-22.5-20.4-22.5c-1-0.1-2,0-3,0.3c0,29.1,0,46.5,8.9,46.5v1.6c-7-0.5-14.9-0.7-21.8-0.7
	c-7.4,0-14.9,0.2-21.8,0.7L239.4,310.5z M279.1,257.5c15.6,0,27.7-3.7,27.7-22.8c0-16-9.5-24.7-20.7-24.7c-3.8,0.1-7.7,0.6-11.4,1.4
	c-0.7,12.6-0.7,40.5-0.7,46C275.4,257.3,276.3,257.5,279.1,257.5L279.1,257.5z"/>
<path class="st1" d="M445.1,228c0-12.3-7-15.6-26-15.6c-1.8,0-3.3,0.2-5.1,0.4c-0.9,4.4-0.9,22.1-0.9,45.1c0,37.2,0,52.5,9,52.6v1.6
	c-6.8-0.5-14.4-0.7-21.8-0.7c-7.4,0-14.9,0.2-21.8,0.7v-1.6c9-0.2,9-15.4,9-52.6c0-23,0-40.7-0.9-45.1c-1.8-0.2-3.3-0.4-5.1-0.4
	c-20.5,0-27.4,9.3-30,20.9l-4.4-1c2.8-9.8,4.3-20,4.4-30.2c1.1,0.7,6.9,1,14.4,1.2c7.5,0.2,16.8,0.3,24.6,0.3h19.1
	c21.1,0,35.6-0.2,43-1.6c-2,9-3,18.2-2.8,27.4v3.4h-4.7L445.1,228z"/>
<path class="st1" d="M554.6,285.4c-4.2,9.7-7.4,17-9.1,28.2c-1.6-1.2-7-1.8-13.3-1.9c-6.3-0.4-13.5-0.4-19.3-0.4h-20.7
	c-14,0-25.3,0.5-27,0.7v-1.6c8.6,0,8.6-14.9,8.6-52.6c0-40.5-0.2-51.8-8.6-52.6v-1.6c3.7,0,8.1,0.2,13.3,0.4
	c5.4,0.2,11.8,0.4,19.3,0.4h15.1c16.5,0,28.8-0.5,36.1-2.3c-2.1,7.7-3.1,15.7-3,23.7v3.5h-3.7c0-16.1-13.3-18.6-31.4-18.6
	c-3.3,0-6.6,0.3-9.8,1.1c-1.4,11.2-1.4,34.6-1.4,38.9c3.3,0.3,6.7,0.5,10,0.5c19.1,0,21.4-4.2,22.1-12.8h3.7
	c-0.8,6.7-1.2,13.4-1.2,20.2c0,11.6,0,4.4,0.2,13.5h-3.9c0-9.3-3.7-14.4-20.9-14.4c-4.2,0-7.7,0-10,0.2c0,5.6,0,33.3,0.5,44.9
	c3.9,0.2,7.7,0.7,11.8,0.7c27.9,0,33.7-8.8,39.5-19.7L554.6,285.4z"/>
<path class="st1" d="M560.7,310.5c3.5,0,4.7-1.4,7.5-3.9c5.6-5.1,42.3-44.2,43-44.9c-3.3-4-17-21.9-33.7-43.3
	c-9.7-12.3-10.3-11.9-15.1-13.2v-1.6c9,0.4,17.9,0.7,26.8,0.7c7.5,0,15.6-0.4,23-0.7v1.6c-2.1,0.4-4.6,0.9-4.6,3.5
	c0,7.4,19.1,30.7,22.8,35.8c5.1-6,21.6-28.8,21.6-34.2c0-4.7-3.2-4.7-5.8-5.1v-1.6c6.3,0.2,12.6,0.7,19.1,0.7
	c5.8,0,11.9-0.4,17.5-0.7v1.6c-2.2,0.3-4.3,1-6.3,2c-4.2,1.8-27.2,29.3-41.6,42.8c3.5,4.2,21.2,26.5,39.3,48.1
	c9.5,11.4,10.5,11.9,14.9,12.5v1.6c-9.5-0.7-19.1-0.7-28.6-0.7c-7.2,0-14.5,0.4-21.8,0.7v-1.6c2.5,0,4.6-0.4,4.6-3.3
	c0-5.6-23.9-33.4-28.1-40c-4.6,5.6-23.5,29.9-23.5,39.3c0,4,3.5,4,5.8,4v1.6c-6-0.4-11.8-0.7-17.7-0.7c-6.5,0-13,0.4-19.3,0.7
	L560.7,310.5z"/>
<path class="st1" d="M699.1,215c-3.7,0.1-6.8-2.9-6.9-6.6c-0.1-3.7,2.9-6.8,6.6-6.9c3.7-0.1,6.8,2.9,6.9,6.6c0,0,0,0.1,0,0.1
	c0.1,3.6-2.7,6.6-6.2,6.7C699.3,215,699.2,215,699.1,215z M699.1,202.7c-2.9,0-5.2,2.4-5.2,5.3c0,0.1,0,0.2,0,0.3
	c0,3.1,2,5.6,5.2,5.6c2.9,0,5.2-2.3,5.2-5.6c0.2-2.9-2-5.4-4.9-5.5C699.3,202.7,699.2,202.7,699.1,202.7L699.1,202.7z M697.8,212.1
	h-1.2v-7.5h2.8c1.8,0,2.7,0.6,2.7,2.1c0,1.1-0.8,1.9-1.8,2c0,0-0.1,0-0.1,0l2.1,3.3h-1.4l-1.9-3.2h-1.1V212.1z M699.1,207.9
	c0.9,0,1.7-0.1,1.7-1.2c0-0.9-0.9-1-1.6-1h-1.5v2.2H699.1z"/>
</svg>
